HIERARCHY
ROOT Hips
{
	OFFSET 0.000000 0.000000 0.000000
	CHANNELS 6 Xposition Yposition Zposition Zrotation Yrotation Xrotation 
	JOINT LeftUpLeg_virtual
	{
		OFFSET 0.000000 0.000000 0.000000
		CHANNELS 3 Zrotation Yrotation Xrotation
		JOINT LeftUpLeg
		{
			OFFSET 8.479694 -4.795517 -0.379053
			CHANNELS 3 Zrotation Yrotation Xrotation
			JOINT LeftLeg
			{
				OFFSET 0.485052 -32.551468 0.112863
				CHANNELS 3 Zrotation Yrotation Xrotation
				JOINT LeftFoot
				{
					OFFSET 0.438033 -32.635670 -3.012641
					CHANNELS 3 Zrotation Yrotation Xrotation
					JOINT LeftToeBase
					{
						OFFSET 0.970169 -13.225353 11.864223
						CHANNELS 3 Zrotation Yrotation Xrotation
						End Site
						{
							OFFSET 0.000000 0.000000 0.000000
						}
					}
				}
			}
		}
	}
	JOINT RightUpLeg_virtual
	{
		OFFSET 0.000000 0.000000 0.000000
		CHANNELS 3 Zrotation Yrotation Xrotation
		JOINT RightUpLeg
		{
			OFFSET -8.479694 -4.795517 -0.379053
			CHANNELS 3 Zrotation Yrotation Xrotation
			JOINT RightLeg
			{
				OFFSET -0.484100 -32.551483 0.112903
				CHANNELS 3 Zrotation Yrotation Xrotation
				JOINT RightFoot
				{
					OFFSET -0.438985 -32.635651 -3.012681
					CHANNELS 3 Zrotation Yrotation Xrotation
					JOINT RightToeBase
					{
						OFFSET -0.970169 -13.225354 11.864223
						CHANNELS 3 Zrotation Yrotation Xrotation
						End Site
						{
							OFFSET 0.000000 0.000000 0.000000
						}
					}
				}
			}
		}
	}
	JOINT Spine_virtual
	{
		OFFSET 0.000000 0.000000 0.000000
		CHANNELS 3 Zrotation Yrotation Xrotation
		JOINT Spine
		{
			OFFSET 0.000000 7.722015 1.166203
			CHANNELS 3 Zrotation Yrotation Xrotation
			JOINT Spine1
			{
				OFFSET 0.000000 12.024086 0.248766
				CHANNELS 3 Zrotation Yrotation Xrotation
				JOINT Spine2
				{
					OFFSET -0.000000 11.503036 -0.491240
					CHANNELS 3 Zrotation Yrotation Xrotation
					JOINT Neck_virtual
					{
						OFFSET 0.000000 0.000000 0.000000
						CHANNELS 3 Zrotation Yrotation Xrotation
						JOINT Neck
						{
							OFFSET 0.000000 18.430687 -3.123054
							CHANNELS 3 Zrotation Yrotation Xrotation
							JOINT Head
							{
								OFFSET -0.000000 9.051071 1.034021
								CHANNELS 3 Zrotation Yrotation Xrotation
								End Site
								{
									OFFSET 0.000000 0.000000 0.000000
								}
							}
						}
					}
					JOINT LeftShoulder_virtual
					{
						OFFSET 0.000000 0.000000 0.000000
						CHANNELS 3 Zrotation Yrotation Xrotation
						JOINT LeftShoulder
						{
							OFFSET 6.197824 13.665230 -4.064723
							CHANNELS 3 Zrotation Yrotation Xrotation
							JOINT LeftArm
							{
								OFFSET 7.778132 -0.187073 -1.709282
								CHANNELS 3 Zrotation Yrotation Xrotation
								JOINT LeftForeArm
								{
									OFFSET 21.954697 0.000000 -2.041093
									CHANNELS 3 Zrotation Yrotation Xrotation
									JOINT LeftHand
									{
										OFFSET 22.992908 0.000000 -0.870901
										CHANNELS 3 Zrotation Yrotation Xrotation
										End Site
										{
											OFFSET 0.000000 0.000000 0.000000
										}
									}
								}
							}
						}
					}
					JOINT RightShoulder_virtual
					{
						OFFSET 0.000000 0.000000 0.000000
						CHANNELS 3 Zrotation Yrotation Xrotation
						JOINT RightShoulder
						{
							OFFSET -6.197824 13.665230 -4.064723
							CHANNELS 3 Zrotation Yrotation Xrotation
							JOINT RightArm
							{
								OFFSET -7.778132 -0.187073 -1.709282
								CHANNELS 3 Zrotation Yrotation Xrotation
								JOINT RightForeArm
								{
									OFFSET -21.954697 0.000000 -2.041093
									CHANNELS 3 Zrotation Yrotation Xrotation
									JOINT RightHand
									{
										OFFSET -22.992908 0.000000 -0.870901
										CHANNELS 3 Zrotation Yrotation Xrotation
										End Site
										{
											OFFSET 0.000000 0.000000 0.000000
										}
									}
								}
							}
						}
					}
				}
			}
		}
	}
}
MOTION
Frames: 13
Frame Time: 0.033333
-112.856087 76.910103 18.654028 0.129005 -16.948766 0.069581 -3.431464 0.249502 15.583493 -10.650511 0.784985 -38.593014 14.138707 4.050499 29.055181 -11.091082 -4.745112 -16.222722 0.000000 0.000000 0.000000 0.134564 0.540861 16.235177 -10.001477 -2.877410 -52.708891 2.688741 4.989900 61.551691 6.639258 13.282791 1.482173 0.000000 0.000000 0.000000 2.784754 5.270536 2.123156 2.008613 1.951578 -3.711026 -0.991718 -1.940173 6.083561 0.026227 0.079981 0.029779 -1.732614 -0.174163 8.111328 -0.425825 -1.628983 -2.689490 0.000000 0.000000 0.000000 0.219948 0.434083 5.149791 -7.041394 -6.370585 3.096155 -65.371877 -22.056438 5.831283 2.044259 0.481101 9.728873 0.000000 0.000000 0.000000 -4.439767 2.110170 4.362642 25.992322 -8.659634 5.242470 51.391641 -3.578119 -4.839942 -2.932481 13.566284 0.378507 0.000000 0.000000 0.000000 
-113.156906 76.943153 20.296076 0.140250 -15.813783 0.197529 -3.415213 0.503719 15.982719 -10.520738 0.192362 -37.955276 14.121385 4.444309 29.453490 -11.633706 -5.362096 -16.663611 0.000000 0.000000 0.000000 0.278576 0.971533 16.099359 -8.849868 -1.804295 -55.248137 2.145968 5.321994 53.472332 7.176316 13.002821 3.522236 0.000000 0.000000 0.000000 2.737166 5.499397 2.449864 2.100987 1.734690 -3.411127 -0.860964 -2.057991 5.949853 0.024096 0.066006 0.036196 -1.569007 -0.334333 8.125193 -0.174759 -1.455090 -2.945119 0.000000 0.000000 0.000000 0.321513 0.382851 5.092801 -7.046302 -6.998065 3.313177 -64.282216 -24.345707 6.511117 1.840506 0.240590 9.494415 0.000000 0.000000 0.000000 -4.220893 2.040532 4.397916 26.126187 -8.501652 5.197830 51.819149 -4.723907 -5.144028 -2.801781 12.652615 0.455797 0.000000 0.000000 0.000000 
-113.519188 76.889854 21.956192 0.318495 -14.167849 0.347677 -3.381918 0.385980 16.689677 -10.563912 -0.262207 -37.597975 14.013158 4.586056 29.948631 -12.271036 -6.077082 -16.899193 0.000000 0.000000 0.000000 0.413088 0.832867 16.067504 -7.766243 -0.612926 -57.748170 1.533285 5.617977 45.112966 7.652569 12.594873 5.368762 0.000000 0.000000 0.000000 2.633090 5.537843 2.735889 2.056708 1.593586 -3.293645 -0.802109 -2.168139 5.837766 0.082457 0.028258 0.050409 -1.459359 -0.369423 8.025109 0.140344 -1.372121 -3.300861 0.000000 0.000000 0.000000 0.368474 0.229815 5.019584 -7.191192 -7.517791 3.668488 -63.432711 -26.377292 7.165344 1.665092 0.404421 9.465666 0.000000 0.000000 0.000000 -4.087381 1.946602 4.406768 26.161756 -8.345805 5.134984 52.229644 -5.880099 -5.270434 -2.660976 11.428436 0.394553 0.000000 0.000000 0.000000 
-113.859329 76.748955 23.731306 0.242567 -12.521317 0.451695 -2.751946 0.222826 17.464071 -11.149429 -0.083113 -37.491830 13.914187 4.587156 30.575181 -13.105698 -7.317924 -17.213863 0.000000 0.000000 0.000000 0.651146 0.495280 16.280743 -6.937518 1.015179 -60.107263 1.014022 5.763926 38.110741 7.989912 12.122994 6.770475 0.000000 0.000000 0.000000 2.714755 5.456554 3.081323 2.087028 1.574669 -3.277753 -0.741988 -2.201672 5.806701 0.032719 0.055535 0.031958 -1.405426 -0.545533 8.098785 0.488489 -1.278366 -3.557960 0.000000 0.000000 0.000000 0.382206 0.154309 5.083828 -7.336400 -7.823159 3.799192 -62.980102 -27.895541 7.661873 1.504594 0.957992 9.458324 0.000000 0.000000 0.000000 -4.042255 1.895182 4.430302 26.290477 -8.104035 5.210644 52.628988 -6.939067 -5.306799 -2.572002 10.175263 0.581909 0.000000 0.000000 0.000000 
-114.293129 76.560577 25.806976 0.452299 -11.048336 0.581155 -2.367716 0.020337 18.180072 -11.674969 0.557872 -37.124202 13.647945 4.619205 31.597568 -13.877387 -8.902270 -17.497247 0.000000 0.000000 0.000000 0.743197 0.333427 16.331636 -6.518427 2.514637 -61.671055 0.594276 5.882894 33.409327 8.019815 11.626386 7.409422 0.000000 0.000000 0.000000 2.564355 5.265732 3.269570 1.972103 1.599065 -3.215865 -0.759029 -2.176365 5.613816 0.076692 0.132471 0.090989 -1.327015 -0.473628 8.196176 0.845909 -1.236213 -3.701086 0.000000 0.000000 0.000000 0.446767 0.188345 5.119268 -7.586608 -7.791685 4.047756 -62.808678 -28.784097 7.815385 1.472045 1.582279 9.736050 0.000000 0.000000 0.000000 -3.990963 1.861958 4.586278 26.307187 -7.727121 5.289012 52.873099 -7.923796 -5.353470 -2.522139 9.102103 0.764595 0.000000 0.000000 0.000000 
-114.868858 76.396057 28.191248 0.618944 -9.228211 0.807086 -2.015971 -0.407998 18.560160 -11.643586 1.093521 -36.156423 12.678207 4.389921 32.784181 -14.305529 -9.809269 -17.644557 0.000000 0.000000 0.000000 0.921824 0.169922 16.075296 -6.428298 3.416856 -61.771042 0.515927 6.152907 29.977430 7.806419 11.221539 9.634059 0.000000 0.000000 0.000000 2.437439 4.921088 3.140522 1.854713 1.516961 -3.217042 -0.806302 -2.241147 5.689566 0.048270 0.076117 0.081220 -1.262990 -0.450527 8.259268 1.262389 -1.250378 -3.628819 0.000000 0.000000 0.000000 0.543344 0.109192 5.065150 -7.702511 -7.443151 4.228943 -63.035078 -28.747617 8.100818 1.332755 2.108985 9.911084 0.000000 0.000000 0.000000 -3.960655 2.046907 4.563907 26.438721 -7.522177 5.420830 53.080883 -8.727993 -5.474317 -2.395927 8.291312 0.998372 0.000000 0.000000 0.000000 
-115.526009 76.319496 30.911671 0.979848 -6.801067 0.786238 -2.954375 -0.767222 18.197588 -9.251542 1.063063 -34.756442 10.077402 3.361974 33.803460 -14.136402 -10.248106 -17.012295 0.000000 0.000000 0.000000 1.930495 0.760694 15.816193 -7.057602 2.892447 -60.222632 0.761280 8.321044 27.911706 7.711387 11.748197 11.448868 0.000000 0.000000 0.000000 2.207251 4.729782 3.087278 1.659957 1.372763 -3.205841 -0.858749 -2.321491 5.715799 0.096302 0.047288 0.100089 -1.163836 -0.470807 8.219991 1.746918 -1.358135 -3.630002 0.000000 0.000000 0.000000 0.621570 0.125270 5.159811 -7.661132 -7.197398 4.304882 -63.317384 -28.083578 8.372834 1.210758 2.509475 10.192257 0.000000 0.000000 0.000000 -3.894199 1.833745 4.553402 26.676878 -7.485735 5.495609 53.014822 -9.469782 -5.566926 -2.465778 7.966859 0.788945 0.000000 0.000000 0.000000 
-116.298462 76.288185 33.866512 1.152189 -4.120432 0.737422 -3.162567 -1.144781 17.422044 -7.430080 0.691225 -32.902360 8.142707 1.336407 34.666000 -14.598954 -11.187836 -15.342265 0.000000 0.000000 0.000000 3.197765 1.130390 15.321771 -8.178259 2.512648 -58.084277 0.666157 9.804708 28.054070 7.842609 11.970958 11.062976 0.000000 0.000000 0.000000 2.124034 4.577810 2.846185 1.522356 1.105129 -3.143693 -0.882169 -2.463435 5.796014 0.229300 -0.054755 0.099027 -1.189937 -0.648026 8.219108 2.097598 -1.462692 -3.606412 0.000000 0.000000 0.000000 0.749159 0.074848 5.275096 -7.434114 -6.689774 4.385708 -63.814826 -26.586457 8.818946 0.976486 2.636178 10.438769 0.000000 0.000000 0.000000 -4.103736 1.856727 4.592343 26.929290 -7.567852 5.647583 53.040114 -9.967722 -5.854002 -2.358157 8.246519 1.164006 0.000000 0.000000 0.000000 
-117.085083 76.388832 36.863503 1.124846 -1.672931 0.308351 -3.252110 -1.781247 16.518768 -5.511399 -0.036736 -30.824733 6.513659 -0.496311 35.735270 -15.812842 -12.272933 -12.532367 0.000000 0.000000 0.000000 3.666237 1.033944 14.767480 -9.052462 3.490609 -55.729545 0.612216 10.104482 29.242618 7.828029 10.646516 9.399392 0.000000 0.000000 0.000000 2.175760 4.572269 2.921302 1.542138 0.936082 -3.075549 -0.817925 -2.491960 5.811787 0.116205 -0.062560 0.098893 -1.113431 -0.712862 8.181269 2.518702 -1.612149 -3.259212 0.000000 0.000000 0.000000 0.829613 -0.036829 5.340003 -7.052052 -6.275011 4.410646 -64.164580 -24.376778 9.351112 0.792892 2.735625 10.915698 0.000000 0.000000 0.000000 -4.087980 1.841254 4.535549 27.383526 -7.780465 5.641444 52.653180 -10.398185 -6.549871 -2.213478 8.874009 1.594085 0.000000 0.000000 0.000000 
-117.815514 76.531029 39.839291 1.401716 0.588917 -0.566496 -3.342389 -1.242896 15.655294 -4.096737 0.628262 -29.014114 5.851275 -1.454919 36.970318 -16.535987 -12.420726 -9.339998 0.000000 0.000000 0.000000 3.321031 0.789215 14.400257 -9.281733 4.795656 -52.834023 0.399700 10.370169 29.770284 7.605066 9.956216 8.105019 0.000000 0.000000 0.000000 2.000572 4.766147 3.335835 1.430803 0.836376 -2.823260 -0.816866 -2.475909 5.849357 0.157549 -0.082325 -0.033217 -0.964888 -0.526953 7.989619 2.815502 -1.846634 -2.883157 0.000000 0.000000 0.000000 0.991230 0.070240 5.235759 -6.641466 -5.923807 4.477113 -64.485483 -21.959526 10.162217 0.672278 3.079946 11.080649 0.000000 0.000000 0.000000 -3.990148 1.772951 4.356543 27.826980 -8.103799 5.683497 52.004732 -10.408492 -7.446930 -1.921843 9.850315 1.908567 0.000000 0.000000 0.000000 
-118.500595 76.628212 42.707745 1.449699 2.772411 -0.437736 -3.638240 -0.904267 14.839827 -2.942379 3.378114 -28.137188 5.951182 -1.659646 39.311984 -16.632624 -11.993981 -6.959336 0.000000 0.000000 0.000000 2.963677 0.559520 14.001439 -8.888560 5.380543 -50.468773 0.681963 9.967917 30.118703 6.279316 8.131294 6.015708 0.000000 0.000000 0.000000 1.814937 4.844691 3.169054 1.495921 0.783627 -3.042699 -0.695561 -2.426820 5.764071 0.156063 -0.087881 -0.052185 -0.841221 -0.336431 7.808035 2.928135 -2.020706 -2.593604 0.000000 0.000000 0.000000 1.142669 0.064898 5.052078 -6.270144 -5.562475 4.433540 -64.816514 -19.664547 11.033378 0.648111 3.629531 11.462197 0.000000 0.000000 0.000000 -3.921581 1.833078 4.182016 28.303052 -8.421664 5.692208 51.151423 -9.875711 -8.462546 -1.821072 11.052657 2.024880 0.000000 0.000000 0.000000 
-119.046043 76.652122 45.405094 0.532136 4.870463 -0.245373 -3.574196 0.034414 14.395952 -1.129841 5.484272 -27.772611 7.076971 -1.653338 42.415335 -15.771219 -10.965961 -5.558289 0.000000 0.000000 0.000000 3.860339 0.597434 13.807576 -9.272087 5.803660 -48.502895 1.070448 9.506186 30.345117 5.428829 7.029039 4.513706 0.000000 0.000000 0.000000 2.161408 4.838330 2.833209 2.060146 0.800934 -3.370889 -0.448328 -2.321985 5.656106 0.096202 -0.058107 0.002205 -0.882509 -0.395941 8.026336 2.942353 -2.247158 -2.113593 0.000000 0.000000 0.000000 1.152466 0.242832 5.011935 -6.020739 -5.367021 4.390339 -65.003867 -17.892603 11.818974 0.676712 4.427539 11.929665 0.000000 0.000000 0.000000 -3.976578 1.933365 4.264504 28.760018 -8.526961 5.659493 49.985107 -8.491050 -9.412224 -1.678782 12.154504 2.187293 0.000000 0.000000 0.000000 
-119.480064 76.605652 47.888744 0.326064 6.698509 -0.031336 -3.572923 0.411149 14.003892 0.238953 7.363386 -28.654191 7.546455 -1.733115 47.942805 -14.473873 -9.818370 -4.803884 0.000000 0.000000 0.000000 2.507973 0.823500 13.741894 -7.843625 6.891852 -46.662292 1.080580 8.692162 30.873254 4.432543 5.680466 2.888770 0.000000 0.000000 0.000000 2.055929 5.009019 2.408657 2.396195 0.882410 -3.626741 -0.290669 -2.188211 5.604205 0.069378 -0.017310 0.059553 -0.809949 -0.307337 8.021708 2.878279 -2.525444 -1.919056 0.000000 0.000000 0.000000 1.186623 0.343437 4.982061 -5.875438 -5.270441 4.212990 -65.448573 -16.576323 12.354442 0.759154 5.509967 12.317824 0.000000 0.000000 0.000000 -3.953169 2.090408 4.272308 29.210889 -8.515676 5.672471 48.518443 -6.326697 -9.997397 -1.646525 13.102701 2.212177 0.000000 0.000000 0.000000 
